<svg xmlns="http://www.w3.org/2000/svg" viewBox="0 0 220 220"><defs><linearGradient id="g" x1="0" y1="0" x2="1" y2="1"><stop stop-color="#f5d0fe"/><stop offset="1" stop-color="#c4b5fd"/></linearGradient></defs><rect width="220" height="220" rx="60" fill="#f5f3ff"/><circle cx="110" cy="88" r="54" fill="#312e81"/><circle cx="110" cy="108" r="46" fill="#f2b887"/><path d="M62 94c10-45 49-66 90-40 14 9 23 25 25 40-38-28-75-7-115 0Z" fill="#1f2937"/><circle cx="91" cy="109" r="5" fill="#111827"/><circle cx="129" cy="109" r="5" fill="#111827"/><path d="M97 135c9 8 18 8 27 0" stroke="#7c2d12" stroke-width="6" stroke-linecap="round"/><path d="M45 202c8-38 37-62 65-62s57 24 65 62H45Z" fill="url(#g)"/></svg>