<svg xmlns="http://www.w3.org/2000/svg" viewBox="0 0 850 260"><defs><linearGradient id="a" x1="0" y1="0" x2="1" y2="1"><stop stop-color="#ddd6fe"/><stop offset="1" stop-color="#8b5cf6"/></linearGradient></defs><rect width="850" height="260" fill="none"/><g opacity=".4"><rect x="510" y="30" width="70" height="200" rx="9" fill="#c4b5fd"/><rect x="610" y="65" width="55" height="165" rx="9" fill="#ddd6fe"/><rect x="690" y="15" width="76" height="215" rx="9" fill="#ede9fe"/><rect x="770" y="88" width="45" height="142" rx="9" fill="#ddd6fe"/></g><ellipse cx="390" cy="230" rx="340" ry="29" fill="#ede9fe"/><g transform="translate(220 58)"><path d="M45 95 150 18l112 77v130H45V95Z" fill="#faf5ff"/><path d="M30 101 150 8l127 93-22 27-105-78-99 78-21-27Z" fill="url(#a)"/><rect x="118" y="145" width="55" height="80" rx="10" fill="#7c3aed"/><rect x="70" y="118" width="45" height="45" rx="8" fill="#c4b5fd"/><rect x="190" y="118" width="45" height="45" rx="8" fill="#c4b5fd"/><path d="M47 225h215" stroke="#7c3aed" stroke-width="10" stroke-linecap="round" opacity=".25"/></g><g transform="translate(125 118)"><rect x="27" y="42" width="8" height="70" rx="4" fill="#7c3aed"/><circle cx="30" cy="30" r="29" fill="#a78bfa"/><circle cx="10" cy="57" r="18" fill="#c4b5fd"/><circle cx="54" cy="60" r="22" fill="#8b5cf6"/></g><g transform="translate(610 120)"><rect x="27" y="42" width="8" height="70" rx="4" fill="#7c3aed"/><circle cx="30" cy="30" r="29" fill="#a78bfa"/><circle cx="10" cy="57" r="18" fill="#c4b5fd"/><circle cx="54" cy="60" r="22" fill="#8b5cf6"/></g></svg>