<svg xmlns="http://www.w3.org/2000/svg" viewBox="0 0 820 620">
<defs>
<linearGradient id="p" x1="0" y1="0" x2="1" y2="1"><stop stop-color="#c4b5fd"/><stop offset="1" stop-color="#6d28d9"/></linearGradient>
<linearGradient id="wall" x1="0" y1="0" x2="1" y2="1"><stop stop-color="#fff"/><stop offset="1" stop-color="#ede9fe"/></linearGradient>
<filter id="shadow" x="-20%" y="-20%" width="140%" height="150%"><feDropShadow dx="0" dy="28" stdDeviation="22" flood-color="#6d28d9" flood-opacity=".24"/></filter>
</defs>
<rect width="820" height="620" fill="none"/>
<g opacity=".45">
<rect x="70" y="290" width="70" height="230" rx="10" fill="#e9d5ff"/><rect x="150" y="230" width="62" height="290" rx="10" fill="#ddd6fe"/><rect x="620" y="220" width="62" height="300" rx="10" fill="#ddd6fe"/><rect x="690" y="270" width="75" height="250" rx="10" fill="#ede9fe"/>
</g>
<ellipse cx="420" cy="535" rx="310" ry="43" fill="#ede9fe"/>
<g filter="url(#shadow)" transform="translate(180 120)">
<path d="M80 170 260 35l190 135v260H80V170Z" fill="url(#wall)"/>
<path d="M56 180 260 20l213 160-33 38-180-135L88 218 56 180Z" fill="url(#p)"/>
<path d="M96 430h348v38H96z" fill="#c4b5fd"/>
<rect x="215" y="285" width="88" height="145" rx="12" fill="#7c3aed"/><circle cx="286" cy="358" r="6" fill="#f5f3ff"/>
<rect x="120" y="210" width="72" height="72" rx="12" fill="#a78bfa"/><path d="M156 210v72M120 246h72" stroke="#fff" stroke-width="8" opacity=".85"/>
<rect x="330" y="210" width="72" height="72" rx="12" fill="#a78bfa"/><path d="M366 210v72M330 246h72" stroke="#fff" stroke-width="8" opacity=".85"/>
<rect x="115" y="320" width="76" height="70" rx="12" fill="#ddd6fe"/><rect x="327" y="320" width="80" height="70" rx="12" fill="#ddd6fe"/>
<path d="M70 468h405" stroke="#7c3aed" stroke-width="18" stroke-linecap="round" opacity=".22"/>
</g>
<g transform="translate(118 355)"><ellipse cx="30" cy="100" rx="23" ry="15" fill="#c4b5fd"/><rect x="25" y="44" width="10" height="65" rx="5" fill="#8b5cf6"/><circle cx="30" cy="30" r="30" fill="#a78bfa"/><circle cx="10" cy="58" r="20" fill="#c4b5fd"/><circle cx="52" cy="62" r="24" fill="#7c3aed"/></g>
<g transform="translate(648 352)"><ellipse cx="30" cy="104" rx="24" ry="16" fill="#c4b5fd"/><rect x="25" y="44" width="10" height="68" rx="5" fill="#8b5cf6"/><circle cx="30" cy="30" r="30" fill="#a78bfa"/><circle cx="9" cy="57" r="20" fill="#c4b5fd"/><circle cx="52" cy="63" r="24" fill="#7c3aed"/></g>
</svg>