<svg xmlns="http://www.w3.org/2000/svg" viewBox="0 0 680 360"><defs><linearGradient id="g" x1="0" y1="0" x2="1" y2="1"><stop stop-color="#f5f3ff"/><stop offset="1" stop-color="#e0e7ff"/></linearGradient></defs><rect width="680" height="360" rx="28" fill="url(#g)"/><path d="M0 90c120 16 200 9 320-40 80-33 226-30 360 18" stroke="#fff" stroke-width="18"/><path d="M80 0c60 95 77 210 52 360M280 0c-16 80-20 184 18 360M475 0c-42 120-33 210 65 360" stroke="#fff" stroke-width="14"/><path d="M0 250c160-24 276-30 414 2 98 23 168 12 266-28" stroke="#d8b4fe" stroke-width="10" opacity=".8"/><g fill="#c4b5fd" opacity=".55"><rect x="50" y="115" width="92" height="55" rx="10"/><rect x="190" y="72" width="108" height="70" rx="10"/><rect x="360" y="92" width="110" height="65" rx="10"/><rect x="515" y="115" width="96" height="72" rx="10"/><rect x="88" y="220" width="105" height="75" rx="10"/><rect x="305" y="238" width="118" height="70" rx="10"/><rect x="498" y="250" width="100" height="55" rx="10"/></g><path d="M330 112c0-37 30-67 67-67s67 30 67 67c0 56-67 128-67 128s-67-72-67-128Z" fill="#7c3aed"/><circle cx="397" cy="112" r="28" fill="#fff"/><circle cx="397" cy="112" r="13" fill="#a78bfa"/></svg>